<?xml version="1.0" ?><!DOCTYPE svg  PUBLIC '-//W3C//DTD SVG 1.1//EN'  'http://www.w3.org/Graphics/SVG/1.1/DTD/svg11.dtd'><svg enable-background="new 0 0 512 512" height="512px" id="Layer_1" version="1.1" viewBox="0 0 512 512" width="512px" xml:space="preserve" xmlns="http://www.w3.org/2000/svg" xmlns:xlink="http://www.w3.org/1999/xlink"><g><path d="M437.033,74.967C390.691,28.779,326.642,0,256.071,0C185.358,0,121.304,28.779,74.968,74.967   C28.765,121.311,0,185.355,0,256.078c0,70.565,28.765,134.615,74.968,180.965C121.304,483.377,185.358,512,256.071,512   c70.57,0,134.62-28.623,180.962-74.957C483.231,390.693,512,326.644,512,256.078C512,185.355,483.231,121.311,437.033,74.967z"/><path clip-rule="evenodd" d="M256.071,199.387c-7.938,0-14.312,6.38-14.312,14.314v84.603   c0,33.307-27.069,60.365-60.512,60.365c-33.305,0-60.51-27.059-60.51-60.365v-35.433h46.192v35.433   c0,7.934,6.663,14.313,14.317,14.313c7.795,0,14.17-6.38,14.17-14.313v-84.603c0-33.307,27.065-60.37,60.653-60.37   c33.157,0,60.367,27.063,60.367,60.37v16.161l-27.774,8.772l-18.428-8.772v-16.161   C270.236,205.767,263.864,199.387,256.071,199.387L256.071,199.387z M330.606,358.669c-33.297,0-60.37-27.059-60.37-60.365v-35.992   l18.428,8.646l27.774-8.646v35.992c0,7.934,6.233,14.313,14.168,14.313c7.939,0,14.175-6.38,14.175-14.313v-35.433h46.48v35.433   C391.262,331.61,364.055,358.669,330.606,358.669L330.606,358.669z" fill="#FFFFFF" fill-rule="evenodd"/></g></svg>